<mxfile host="app.diagrams.net" modified="2024-07-26T10:42:55.713Z" agent="Mozilla/5.0 (Macintosh; Intel Mac OS X 10_15_7) AppleWebKit/537.36 (KHTML, like Gecko) Chrome/125.0.0.0 Safari/537.36" version="24.7.3" etag="u_CXDO_7nIbvF5fXP-XL" type="github">
  <diagram name="第 1 页" id="O8hsLUw52cin_FRzYxNW">
    <mxGraphModel>
      <root>
        <mxCell id="0" />
        <mxCell id="1" parent="0" />
      </root>
    </mxGraphModel>
  </diagram>
</mxfile>
